<svg xmlns="http://www.w3.org/2000/svg" viewBox="0 0 346.64 347.04"><defs><style>.cls-1{opacity:0.5;}.cls-2{fill:#fff;}.cls-3{opacity:0.25;}.cls-4{opacity:0.1;}</style></defs><g id="Layer_2" data-name="Layer 2"><g id="Layer_1-2" data-name="Layer 1"><g class="cls-1"><path class="cls-2" d="M166,58.34a131.38,131.38,0,0,1,61.51,4.73l-.84,2.57A128.65,128.65,0,0,0,166.46,61Z"/></g><g class="cls-1"><path class="cls-2" d="M66.93,136.32l2.49,1.05A127.45,127.45,0,0,0,60.62,205l-2.68.38A130.15,130.15,0,0,1,66.93,136.32Z"/></g><g class="cls-1"><path class="cls-2" d="M69.61,243.77l2.44-1.18a127.41,127.41,0,0,0,24.71,34.72l-1.91,1.91A130.35,130.35,0,0,1,69.61,243.77Z"/></g><g class="cls-3"><path class="cls-2" d="M73.89,300.17l1.91-1.91A156,156,0,0,0,190,344.31l0,2.7A158.67,158.67,0,0,1,73.89,300.17Z"/></g><g class="cls-3"><path class="cls-2" d="M324.77,110.93l2.37-1.3a158.51,158.51,0,0,1,19.5,65.82l-2.7.19A155.9,155.9,0,0,0,324.77,110.93Z"/></g><g class="cls-3"><path class="cls-2" d="M73.89,73.88a158.94,158.94,0,0,1,87.36-44.79l.43,2.67A157.4,157.4,0,0,0,34.39,148.93l-2.63-.65A159.86,159.86,0,0,1,73.89,73.88Z"/></g><g class="cls-4"><path class="cls-2" d="M156.89,2.42A188.4,188.4,0,0,1,245.14,9.2l-.84,2.56a185.93,185.93,0,0,0-87-6.68Z"/></g><g class="cls-4"><path class="cls-2" d="M5.54,141.74l2.62.65A185,185,0,0,0,21,267.25l-2.44,1.18A187.66,187.66,0,0,1,5.54,141.74Z"/></g><g class="cls-1"><path class="cls-2" d="M146.77,307.87a127.62,127.62,0,0,0,42.13,6.28h0a127.05,127.05,0,0,0,87.89-37.37l1.91,1.91A129.7,129.7,0,0,1,189,316.85h0a130.14,130.14,0,0,1-43-6.41Z"/></g><path class="cls-2" d="M258.74,258.73a102.07,102.07,0,0,0,27.4-93l-2.44,1.46a98.76,98.76,0,1,1-81-77.54l2.39-2.39a101.39,101.39,0,1,0,53.67,171.46Z"/></g></g></svg>