<svg xmlns="http://www.w3.org/2000/svg" viewBox="0 0 64.17 54.18"><defs><style>.cls-1{opacity:0.5;}.cls-2{fill:#fff;}.cls-3{opacity:0.25;}.cls-4{opacity:0.1;}</style></defs><g id="Layer_2" data-name="Layer 2"><g id="Layer_1-2" data-name="Layer 1"><g class="cls-1"><path class="cls-2" d="M16.94,44a24.54,24.54,0,0,1-7.5-8.75L9.89,35a23.92,23.92,0,0,0,7.35,8.57Z"/></g><g class="cls-1"><path class="cls-2" d="M40.34,46.78l-.2-.46a23.78,23.78,0,0,0,10.1-7.78l.41.3A24.3,24.3,0,0,1,40.34,46.78Z"/></g><g class="cls-1"><path class="cls-2" d="M54.17,32.23l-.47-.16A24,24,0,0,0,55,24.22h.5A24.15,24.15,0,0,1,54.17,32.23Z"/></g><g class="cls-3"><path class="cls-2" d="M61.06,24.22h-.5a29.16,29.16,0,0,0-9-21.17l.35-.36A29.64,29.64,0,0,1,61.06,24.22Z"/></g><g class="cls-3"><path class="cls-2" d="M2.92,16.08l-.49-.14A29.92,29.92,0,0,1,8.55,4.66L8.94,5A29.15,29.15,0,0,0,2.92,16.08Z"/></g><g class="cls-3"><path class="cls-2" d="M31.17,54.11a29.68,29.68,0,0,1-17.46-5.62l.3-.41A29.4,29.4,0,0,0,46.3,49.42l.26.43A29.83,29.83,0,0,1,31.17,54.11Z"/></g><g class="cls-4"><path class="cls-2" d="M10.76,52.59A35.23,35.23,0,0,1,0,40l.45-.22A34.67,34.67,0,0,0,11.06,52.18Z"/></g><g class="cls-4"><path class="cls-2" d="M49.16,54.18l-.26-.44A34.54,34.54,0,0,0,63.7,35.55l.47.17A35.09,35.09,0,0,1,49.16,54.18Z"/></g><g class="cls-1"><path class="cls-2" d="M52.45,13.57a23.66,23.66,0,0,0-4.74-6.39h0A23.69,23.69,0,0,0,31.17.5V0A24.24,24.24,0,0,1,48.06,6.81h0a24.36,24.36,0,0,1,4.84,6.54Z"/></g><path class="cls-2" d="M31.17,5.27a19.08,19.08,0,0,0-15.91,8.67l.52.13A18.45,18.45,0,1,1,16.24,35h-.63A18.94,18.94,0,1,0,31.17,5.27Z"/><path class="cls-2" d="M9.73,15.51A3.46,3.46,0,1,0,13.19,19,3.45,3.45,0,0,0,9.73,15.51Zm0,5.82A2.36,2.36,0,1,1,12,19,2.29,2.29,0,0,1,9.73,21.33Z"/><path class="cls-2" d="M16.78,17.56a2.3,2.3,0,0,0-1.41.43v-.32H14.24V24.6h1.13V22a2.3,2.3,0,0,0,1.41.43,2.42,2.42,0,0,0,0-4.83Zm-.17,3.85a1.42,1.42,0,0,1-1.24-.64V19.18a1.43,1.43,0,0,1,1.24-.65A1.4,1.4,0,0,1,18,20,1.39,1.39,0,0,1,16.61,21.41Z"/><path class="cls-2" d="M24.44,19.91a2.24,2.24,0,0,0-2.28-2.39,2.46,2.46,0,0,0,0,4.91A2.16,2.16,0,0,0,24.35,21H23.16a1,1,0,0,1-.94.42,1.29,1.29,0,0,1-1.39-1.15h3.59A2.06,2.06,0,0,0,24.44,19.91Zm-3.59-.33a1.27,1.27,0,0,1,1.31-1.1,1.11,1.11,0,0,1,1.14,1.1Z"/><path class="cls-2" d="M27.89,17.52a2.13,2.13,0,0,0-1.42.53v-.38H25.33v4.62h1.14V19.21a1.61,1.61,0,0,1,1.19-.66,1.09,1.09,0,0,1,1.13,1.25v2.49h1.12V19.74A2,2,0,0,0,27.89,17.52Z"/><path class="cls-2" d="M11.15,26.85l-.83-.17c-.7-.13-1.08-.38-1.08-.89s.52-1,1.32-1A1.27,1.27,0,0,1,12,25.93h1.17a2.43,2.43,0,0,0-2.7-2.11C9,23.82,8,24.65,8,25.89c0,1,.59,1.64,1.88,1.88L11,28c.76.14,1,.47,1,.82,0,.56-.49.91-1.29.91a1.58,1.58,0,0,1-1.76-1.27H7.73a2.55,2.55,0,0,0,2.85,2.3c1.54,0,2.57-.83,2.57-2.07C13.15,27.61,12.42,27.1,11.15,26.85Z"/><path class="cls-2" d="M14.24,26V30.6h1.13V26Z"/><path class="cls-2" d="M20,26v.28a2.35,2.35,0,0,0-1.42-.43,2.3,2.3,0,0,0-2.32,2.37,2.33,2.33,0,0,0,2.32,2.28A2.42,2.42,0,0,0,20,30.06v.54a1.17,1.17,0,0,1-1.22,1.28A1.11,1.11,0,0,1,17.51,31H16.37a2.21,2.21,0,0,0,2.38,1.92A2.19,2.19,0,0,0,21.1,30.6V26Zm0,2.87a1.48,1.48,0,0,1-1.26.66,1.35,1.35,0,0,1-1.35-1.31,1.32,1.32,0,0,1,1.35-1.4,1.45,1.45,0,0,1,1.26.66Z"/><path class="cls-2" d="M24.77,25.84a2.19,2.19,0,0,0-1.42.53V26H22.22V30.6h1.13V27.53a1.62,1.62,0,0,1,1.19-.67,1.11,1.11,0,0,1,1.14,1.26V30.6H26.8V28.05A2,2,0,0,0,24.77,25.84Z"/><path class="cls-2" d="M31.19,26v3.06a1.64,1.64,0,0,1-1.21.68c-.7,0-1.13-.46-1.13-1.26V26H27.73v2.55a2,2,0,0,0,2,2.21,2.2,2.2,0,0,0,1.44-.53v.38h1.12V26Z"/><path class="cls-2" d="M39,25.84a2.27,2.27,0,0,0-1.73.71,1.87,1.87,0,0,0-1.5-.71,1.6,1.6,0,0,0-1.24.47V26H33.42V30.6h1.14V27.48a1.26,1.26,0,0,1,1-.62c.7,0,1.11.46,1.11,1.26V30.6h1.12V28.05a3.21,3.21,0,0,0,0-.55,1.27,1.27,0,0,1,1.06-.64c.71,0,1.11.46,1.11,1.26V30.6H41V28.05A2,2,0,0,0,39,25.84Z"/></g></g></svg>